<svg xmlns="http://www.w3.org/2000/svg" viewBox="0 0 600 400" width="600" height="400">
  <defs>
    <linearGradient id="bg-gradient" x1="0%" y1="0%" x2="100%" y2="100%">
      <stop offset="0%" stop-color="#e0f2fe" stop-opacity="0.5" />
      <stop offset="100%" stop-color="#ffffff" stop-opacity="0.1" />
    </linearGradient>
    <pattern id="neural-pattern" width="100" height="100" patternUnits="userSpaceOnUse">
      <circle cx="10" cy="10" r="2" fill="#3b82f6" opacity="0.2" />
      <circle cx="30" cy="30" r="2" fill="#3b82f6" opacity="0.2" />
      <circle cx="50" cy="10" r="2" fill="#3b82f6" opacity="0.2" />
      <circle cx="70" cy="30" r="2" fill="#3b82f6" opacity="0.2" />
      <circle cx="90" cy="10" r="2" fill="#3b82f6" opacity="0.2" />
      <circle cx="10" cy="50" r="2" fill="#3b82f6" opacity="0.2" />
      <circle cx="30" cy="70" r="2" fill="#3b82f6" opacity="0.2" />
      <circle cx="50" cy="50" r="2" fill="#3b82f6" opacity="0.2" />
      <circle cx="70" cy="70" r="2" fill="#3b82f6" opacity="0.2" />
      <circle cx="90" cy="50" r="2" fill="#3b82f6" opacity="0.2" />
    </pattern>
    <pattern id="paper-texture" width="100" height="100" patternUnits="userSpaceOnUse">
      <rect width="100" height="100" fill="#ffffff" />
      <rect width="100" height="100" fill="#000000" opacity="0.03" />
    </pattern>
    <linearGradient id="scan-gradient" x1="0%" y1="0%" x2="0%" y2="100%">
      <stop offset="0%" stop-color="#3b82f6" stop-opacity="0" />
      <stop offset="50%" stop-color="#3b82f6" stop-opacity="0.3" />
      <stop offset="100%" stop-color="#3b82f6" stop-opacity="0" />
    </linearGradient>
    <filter id="glow" x="-20%" y="-20%" width="140%" height="140%">
      <feGaussianBlur stdDeviation="5" result="blur" />
      <feComposite in="SourceGraphic" in2="blur" operator="over" />
    </filter>
  </defs>
  <rect width="600" height="400" fill="url(#bg-gradient)" />
  <rect width="600" height="400" fill="url(#neural-pattern)" />
  <g transform="translate(100, 50) rotate(5)">
    <rect width="300" height="350" rx="5" ry="5" fill="url(#paper-texture)" stroke="#e5e7eb" stroke-width="2" />
    <path d="M50,70 C80,60 120,80 150,70 S200,50 250,60" stroke="#0f172a" stroke-width="2" fill="none" opacity="0.7" />
    <path d="M50,100 C90,95 130,110 170,100 S220,90 250,95" stroke="#0f172a" stroke-width="2" fill="none" opacity="0.7" />
    <path d="M50,130 C70,125 90,135 110,130 S150,120 180,125" stroke="#0f172a" stroke-width="2" fill="none" opacity="0.7" />
    <rect width="300" height="50" y="150" fill="url(#scan-gradient)" opacity="0.7">
      <animate attributeName="y" from="0" to="350" dur="3s" repeatCount="indefinite" />
    </rect>
  </g>
  <g transform="translate(350, 100)">
    <rect width="220" height="250" rx="10" ry="10" fill="#ffffff" stroke="#e5e7eb" stroke-width="2" />
    <circle cx="110" cy="40" r="20" fill="#3b82f6" opacity="0.2" />
    <path d="M110,20 L110,60 M90,40 L130,40" stroke="#3b82f6" stroke-width="2" opacity="0.8" />
    <rect x="30" y="80" width="160" height="10" rx="2" fill="#0f172a" opacity="0.8" />
    <rect x="30" y="100" width="140" height="10" rx="2" fill="#0f172a" opacity="0.7" />
    <rect x="30" y="120" width="120" height="10" rx="2" fill="#0f172a" opacity="0.7" />
    <rect x="30" y="150" width="160" height="10" rx="2" fill="#0f172a" opacity="0.6" />
    <rect x="30" y="170" width="130" height="10" rx="2" fill="#0f172a" opacity="0.6" />
  </g>
</svg>
